Simulation
nRows=15
nColumns=15
endheader
time  TH_x TH_y TH_z SC_y  SC_z  SC_x  AC_y  AC_z  AC_x  GH_y  GH_z  GH_yy  EL_x  PS_y
2.8725  0.000000  0.000000  0.000000  -35.382279342965745  -0.5500258933427274  -24.233287218483593  37.99632000100364  23.50910510699742  15.603785589713125  36.12222693713337  6.785337078865876  -29.070698541296593  14.045603722666474  120.000000
2.92995  0.000000  0.000000  0.000000  -35.40873333902838  -0.5134429771412465  -23.500825584922513  38.43571163870651  23.4772193192066  15.254860440350116  47.75647684168165  5.763526883193735  -37.9042820501659  14.409751114750566  120.000000
2.9874  0.000000  0.000000  0.000000  -35.50679019430473  -0.39011303695110383  -22.575465644961884  38.884285222127396  23.315133702667477  14.796575938321903  61.736011318825696  5.2258310340514305  -49.52889399442518  14.858161576416116  120.000000
3.0448500000000003  0.000000  0.000000  0.000000  -35.650867451679844  -0.18175168565168273  -21.505894294162843  39.30819120419168  23.025753939145044  14.253655918708287  75.76983219432431  5.124143632181657  -61.692173749440634  15.345658594332034  120.000000
3.1023  0.000000  0.000000  0.000000  -35.81333729123784  0.09949834375386496  -20.344349032336062  39.69039383911126  22.625224830667975  13.652663432162647  87.58533090254296  5.32277219058611  -72.10386503383334  15.829599262840134  120.000000
3.15975  0.000000  0.000000  0.000000  -35.973104830486776  0.43122778974640913  -19.139793319278674  40.02675634315843  22.13789351191312  13.021431070892033  96.37077366704116  5.6602216796892835  -79.8955950838653  16.280464917746254  120.000000
3.2172  0.000000  0.000000  0.000000  -36.11493846426377  0.7859101739713413  -17.93502441528864  40.32476185639548  21.590646185382855  12.38348415165544  102.43438861475282  6.012590023982141  -85.29539716812315  16.687992355062725  120.000000
3.2746500000000003  0.000000  0.000000  0.000000  -36.226036671290935  1.1369596192633389  -16.76651994046432  40.60040616629909  21.008886398408638  11.756073080937638  106.39221405593504  6.31043625231309  -88.8287200085777  17.059519008262235  120.000000
3.3321  0.000000  0.000000  0.000000  -36.29656672635027  1.4606673491786761  -15.661642703729385  40.86912578678141  20.412721274787334  11.153297727483366  108.79692975574261  6.52728820751662  -90.9595656328904  17.411935148088762  120.000000
3.38955  0.000000  0.000000  0.000000  -36.32147917941225  1.7388675886848837  -14.638307763568106  41.1408786161132  19.81619255894342  10.586008353979764  110.07130257088498  6.665174080070461  -92.03594882337015  17.76103736159881  120.000000
3.447  0.000000  0.000000  0.000000  -36.303651406452566  1.9624772834029827  -13.706633307624807  41.41848010335532  19.229031037868143  10.06017160835604  110.5245989432588  6.742575277733371  -92.31469544169941  18.115865362213995  120.000000
3.5044500000000003  0.000000  0.000000  0.000000  -36.2539444657307  2.131334849544774  -12.870713672862752  41.697124961117595  18.659186671228998  9.577389280136366  110.38030572384079  6.783700071347777  -91.9901876015639  18.478562491648837  120.000000
3.5619  0.000000  0.000000  0.000000  -36.18629409298664  2.2502533868240113  -12.130013699358113  41.96600714150786  18.113788287302572  9.137821271656668  109.80179477215769  6.8116814501755325  -91.21473954282735  18.846806078997624  120.000000
3.61935  0.000000  0.000000  0.000000  -36.111929478470934  2.327390619635649  -11.482043717151056  42.21357802973116  17.599531872463544  8.740360070344545  108.90187096777147  6.8458619223662485  -90.1000984601734  19.21764950722665  120.000000
3.6768  0.000000  0.000000  0.000000  -36.0361680773779  2.3739925753148308  -10.925289392296937  42.43050205486332  17.122555720738678  8.381023634154383  107.74878616139023  6.900494627303296  -88.71668005357282  19.589734556554948  120.000000
